#!OML:ASF H:\ManfredETheater\Project 1\Capture day 1\Session 1\subject.ASF
:FULLY-SPECIFIED
:DEGREES
94
root 2.89315 23.2423 9.255 -178.553 3.84764 175.918
lowerback 28.8007 -0.526765 1.54502
upperback 4.37833 1.05853 1.30892
thorax -11.025 0.912871 0.109584
lowerneck -14.0346 -0.29282 -0.635816
upperneck 13.2815 0.552833 -4.08975
head 6.35947 -0.0428028 -1.14488
rclavicle 8.34896e-015 1.66979e-014
rhumerus -2.88083 -2.88409 -33.7258
rradius 37.7551
rwrist 0.729365
rhand -25.9827 -2.03168
rfingers 7.12502
rthumb 0.562427 -32.0107
lclavicle 8.34896e-015 1.66979e-014
lhumerus -18.6736 2.89682 51.7149
lradius 67.9327
lwrist 5.0682
lhand -25.3669 -11.0409
lfingers 7.12502
lthumb 1.15719 18.9357
rfemur -60.6483 -16.5641 25.8162
rtibia 105.001
rfoot -13.5722 -9.69522
rtoes -17.3229
lfemur -63.6726 1.83286 -11.595
ltibia 55.7175
lfoot -2.67439 -1.05145
ltoes -6.10451
95
root 2.85771 23.2537 8.86176 -178.633 3.87041 176.197
lowerback 28.8062 -0.557832 1.72608
upperback 4.46154 1.11751 1.48171
thorax -10.9337 0.947461 0.178015
lowerneck -13.8786 -0.294766 -0.663221
upperneck 13.3417 0.573245 -4.14993
head 6.35281 -0.035197 -1.15712
rclavicle -7.55382e-015 -1.11319e-014
rhumerus -3.64869 -4.15104 -32.7668
rradius 36.7661
rwrist 0.917104
rhand -26.0761 -2.45291
rfingers 7.12502
rthumb 0.472275 -32.4321
lclavicle -7.55382e-015 -1.11319e-014
lhumerus -18.5264 3.09152 50.6297
lradius 67.5742
lwrist 5.3645
lhand -25.3604 -10.7989
lfingers 7.12502
lthumb 1.16349 19.1776
rfemur -61.9266 -16.3107 26.9869
rtibia 103.27
rfoot -14.3116 -10.2844
rtoes -18.2374
lfemur -62.4203 1.74666 -11.3186
ltibia 54.1938
lfoot -2.45358 -1.22158
ltoes -6.1294
96
root 2.82482 23.2534 8.46229 -178.74 3.85644 176.476
lowerback 28.7712 -0.599421 1.88269
upperback 4.53553 1.15119 1.65322
thorax -10.833 0.970477 0.26894
lowerneck -13.7401 -0.297138 -0.673621
upperneck 13.4602 0.592086 -4.20121
head 6.36768 -0.0274126 -1.16982
rclavicle 0 -1.43125e-014
rhumerus -4.44694 -5.43961 -31.8198
rradius 35.9012
rwrist 1.12558
rhand -26.0609 -2.78413
rfingers 7.12502
rthumb 0.486967 -32.7633
lclavicle 0 -1.43125e-014
lhumerus -18.3419 3.30272 49.4192
lradius 67.1812
lwrist 5.70948
lhand -25.4366 -10.5649
lfingers 7.12502
lthumb 1.08994 19.412
rfemur -62.8033 -16.0359 27.9905
rtibia 101.04
rfoot -14.9454 -10.7647
rtoes -19.1995
lfemur -61.1765 1.6456 -11.0641
ltibia 52.8464
lfoot -2.30025 -1.46641
ltoes -6.04369
97
root 2.7943 23.2405 8.05721 -178.867 3.78845 176.714
lowerback 28.6891 -0.647279 1.98305
upperback 4.59077 1.1512 1.81414
thorax -10.7306 0.977672 0.393344
lowerneck -13.6111 -0.301957 -0.67263
upperneck 13.6369 0.608269 -4.24349
head 6.40259 -0.0199682 -1.18207
rclavicle -8.74653e-015 -4.77083e-015
rhumerus -5.29646 -6.69701 -30.8656
rradius 35.159
rwrist 1.425
rhand -25.9704 -3.00718
rfingers 7.12502
rthumb 0.574295 -32.9862
lclavicle -8.74653e-015 -4.77083e-015
lhumerus -18.1156 3.53427 48.1047
lradius 66.7465
lwrist 6.07478
lhand -25.5625 -10.3329
lfingers 7.12502
lthumb 0.968331 19.6447
rfemur -63.3173 -15.7898 28.7699
rtibia 98.3801
rfoot -15.474 -11.0635
rtoes -20.2488
lfemur -59.9642 1.51392 -10.8856
ltibia 51.671
lfoot -2.23058 -1.76353
ltoes -5.93989
98
root 2.76597 23.2148 7.64715 -179.006 3.65763 176.879
lowerback 28.5491 -0.696711 2.00933
upperback 4.62702 1.11556 1.95566
thorax -10.6211 0.967985 0.552171
lowerneck -13.5047 -0.311257 -0.658772
upperneck 13.8731 0.619981 -4.28066
head 6.4603 -0.0140952 -1.19561
rclavicle 7.55382e-015 3.02153e-014
rhumerus -6.21816 -7.86435 -29.888
rradius 34.5472
rwrist 1.82038
rhand -25.8426 -3.16048
rfingers 7.12502
rthumb 0.697757 -33.1391
lclavicle 7.55382e-015 3.02153e-014
lhumerus -17.833 3.79099 46.7083
lradius 66.2701
lwrist 6.43498
lhand -25.6985 -10.0965
lfingers 7.12502
lthumb 0.836984 19.8816
rfemur -63.5044 -15.5889 29.2873
rtibia 95.3572
rfoot -15.8759 -11.1376
rtoes -21.4075
lfemur -58.7952 1.3465 -10.8215
ltibia 50.6564
lfoot -2.25389 -2.08165
ltoes -5.84952
99
root 2.7397 23.1757 7.23276 -179.157 3.45166 176.95
lowerback 28.3548 -0.745404 1.94568
upperback 4.63849 1.04107 2.07367
thorax -10.5124 0.939524 0.750791
lowerneck -13.4117 -0.327834 -0.638949
upperneck 14.1614 0.624648 -4.31195
head 6.53685 -0.0109151 -1.20923
rclavicle 2.22639e-014 3.65764e-014
rhumerus -7.2345 -8.86558 -28.8677
rradius 34.0775
rwrist 2.25717
rhand -25.6982 -3.24416
rfingers 7.12502
rthumb 0.837196 -33.2223
lclavicle 2.22639e-014 3.65764e-014
lhumerus -17.5079 4.06138 45.2459
lradius 65.7768
lwrist 6.77859
lhand -25.8066 -9.85304
lfingers 7.12502
lthumb 0.732568 20.1254
rfemur -63.3973 -15.4335 29.5144
rtibia 92.0366
rfoot -16.1287 -10.9741
rtoes -22.7303
lfemur -57.6732 1.14696 -10.9103
ltibia 49.7893
lfoot -2.3704 -2.40216
ltoes -5.85335
100
root 2.71554 23.1234 6.81455 -179.318 3.168 176.922
lowerback 28.1117 -0.791303 1.79231
upperback 4.62228 0.930805 2.16721
thorax -10.41 0.893222 0.986507
lowerneck -13.3352 -0.352357 -0.617409
upperneck 14.498 0.62209 -4.33619
head 6.63163 -0.0105166 -1.22186
rclavicle -2.5842e-014 -4.77083e-014
rhumerus -8.36749 -9.61765 -27.7912
rradius 33.7719
rwrist 2.64016
rhand -25.5526 -3.30247
rfingers 7.12502
rthumb 0.977809 -33.28
lclavicle -2.5842e-014 -4.77083e-014
lhumerus -17.1454 4.33794 43.7323
lradius 65.2848
lwrist 7.09435
lhand -25.8608 -9.58313
lfingers 7.12502
lthumb 0.680212 20.3955
rfemur -63.0223 -15.3007 29.4453
rtibia 88.4756
rfoot -16.188 -10.592
rtoes -24.233
lfemur -56.5968 0.930369 -11.1652
ltibia 49.0555
lfoot -2.56443 -2.70832
ltoes -5.9841
101
root 2.69342 23.0577 6.39281 -179.489 2.80799 176.812
lowerback 27.8307 -0.834008 1.56335
upperback 4.57745 0.791872 2.24085
thorax -10.3192 0.832091 1.2533
lowerneck -13.2645 -0.387081 -0.599595
upperneck 14.8683 0.609212 -4.35177
head 6.73814 -0.0141247 -1.2323
rclavicle -6.36111e-015 1.59028e-015
rhumerus -9.62388 -10.0615 -26.6534
rradius 33.6346
rwrist 2.88567
rhand -25.4078 -3.35723
rfingers 7.12502
rthumb 1.11772 -33.334
lclavicle -6.36111e-015 1.59028e-015
lhumerus -16.756 4.60583 42.1789
lradius 64.8158
lwrist 7.38185
lhand -25.8461 -9.298
lfingers 7.12502
lthumb 0.694398 20.6806
rfemur -62.3957 -15.1611 29.0925
rtibia 84.7287
rfoot -15.9928 -10.0366
rtoes -25.774
lfemur -55.5593 0.721599 -11.5796
ltibia 48.4432
lfoot -2.81303 -2.9969
ltoes -6.27135
102
root 2.67325 22.9788 5.96754 -179.673 2.37735 176.641
lowerback 27.5199 -0.875169 1.27997
upperback 4.50543 0.631345 2.30074
thorax -10.2417 0.759306 1.543
lowerneck -13.1977 -0.431784 -0.593489
upperneck 15.2602 0.586637 -4.35595
head 6.8523 -0.0214718 -1.23821
rclavicle -2.78299e-015 2.38542e-014
rhumerus -11.0036 -10.1599 -25.4598
rradius 33.6695
rwrist 2.94182
rhand -25.2609 -3.41591
rfingers 7.12502
rthumb 1.25963 -33.3919
lclavicle -2.78299e-015 2.38542e-014
lhumerus -16.3436 4.86019 40.5957
lradius 64.3793
lwrist 7.63873
lhand -25.7683 -9.02231
lfingers 7.12502
lthumb 0.769519 20.956
rfemur -61.5322 -14.984 28.4823
rtibia 80.8473
rfoot -15.4807 -9.36607
rtoes -27.2678
lfemur -54.5527 0.538523 -12.1287
ltibia 47.9416
lfoot -3.08627 -3.26026
ltoes -6.69446
103
root 2.65488 22.8868 5.53866 -179.876 1.88559 176.438
lowerback 27.1945 -0.917087 0.966623
upperback 4.40881 0.456694 2.35229
thorax -10.1815 0.678426 1.84465
lowerneck -13.1541 -0.491715 -0.590769
upperneck 15.6836 0.547773 -4.35664
head 6.98063 -0.0362328 -1.24432
rclavicle -1.19271e-015 1.27222e-014
rhumerus -12.5042 -9.88601 -24.2248
rradius 33.8893
rwrist 2.77867
rhand -25.0921 -3.50211
rfingers 7.12502
rthumb 1.42259 -33.4771
lclavicle -1.19271e-015 1.27222e-014
lhumerus -15.925 5.08106 38.9848
lradius 63.9954
lwrist 7.87327
lhand -25.6611 -8.7564
lfingers 7.12502
lthumb 0.873097 21.2216
rfemur -60.4362 -14.7426 27.6482
rtibia 76.878
rfoot -14.5832 -8.67049
rtoes -28.5752
lfemur -53.5613 0.398451 -12.78
ltibia 47.5408
lfoot -3.35627 -3.50201
ltoes -7.20633
104
root 2.63801 22.7827 5.10615 -180.103 1.34206 176.227
lowerback 26.8647 -0.962034 0.648863
upperback 4.2918 0.275238 2.40099
thorax -10.1389 0.593026 2.14697
lowerneck -13.099 -0.561729 -0.612483
upperneck 16.1077 0.498034 -4.33583
head 7.1073 -0.0547298 -1.24047
rclavicle -1.23246e-014 -5.88403e-014
rhumerus -14.1046 -9.28168 -22.97
rradius 34.2686
rwrist 2.45581
rhand -24.9064 -3.58711
rfingers 7.12502
rthumb 1.60193 -33.5608
lclavicle -1.23246e-014 -5.88403e-014
lhumerus -15.5094 5.25679 37.3523
lradius 63.6764
lwrist 8.08879
lhand -25.5481 -8.51333
lfingers 7.12502
lthumb 0.982232 21.4642
rfemur -59.1132 -14.42 26.6272
rtibia 72.8668
rfoot -13.27 -8.00532
rtoes -29.5545
lfemur -52.5687 0.310416 -13.4978
ltibia 47.2297
lfoot -3.59236 -3.72564
ltoes -7.77777
